:FULLY-SPECIFIED
:FORCE-ALL-JOINTS-BE-3DOF
:DEGREES
611
root 5.62768 16.6713 -3.76132 2.79362 52.8556 -5.19028
lfemur -18.0071 24.7502 -22.0139
ltibia 40.4598 0 0
lfoot -32.524 25.1072 0
ltoes 18.0872 0 0
rfemur -53.0366 -17.904 28.2163
rtibia 61.8373 0 0
rfoot 7.96744 30.0634 0
rtoes -3.5175 0 0
lowerback 3.59449 -3.31272 -4.95053
upperback 0.102983 -4.59958 1.08316
thorax -1.42587 -2.26285 4.08701
lowerneck -8.35485 -9.41623 -0.530868
upperneck 14.9406 -13.4304 4.60289
head 6.26552 -6.17332 0.45707
lclavicle 9.68504e-14 9.71471e-15 0
lhumerus -22.2664 -42.0435 92.8399
lradius 56.5344 0 0
lwrist 20.5879 0 0
lhand -10.4235 0.370937 0
lfingers 7.12502 0 0
lthumb 15.5761 29.7683 0
rclavicle 9.68504e-14 9.71471e-15 0
rhumerus 22.2328 3.67955 -72.2052
rradius 118.605 0 0
rwrist -58.839 0 0
rhand -27.0007 -22.3806 0
rfingers 7.12502 0 0
rthumb -0.420753 -772.359 0
612
root 5.63522 16.6792 -3.75144 5.2842 52.1259 -2.78552
lfemur -17.9696 24.9763 -22.042
ltibia 40.3008 0 0
lfoot -32.5268 25.211 0
ltoes 18.469 0 0
rfemur -53.0305 -17.9565 28.3066
rtibia 61.89 0 0
rfoot 7.92612 30.1876 0
rtoes -3.27967 0 0
lowerback 3.52765 -3.34883 -4.92618
upperback 0.0425489 -4.64631 1.08016
thorax -1.44685 -2.2849 4.07012
lowerneck -8.42373 -9.33509 -0.45603
upperneck 15.0094 -13.329 4.55264
head 6.28488 -6.12079 0.433929
lclavicle 9.73606e-14 9.39223e-15 0
lhumerus -22.1986 -42.4216 93.0377
lradius 56.7135 0 0
lwrist 20.5133 0 0
lhand -10.2716 0.39103 0
lfingers 7.12502 0 0
lthumb 15.7226 29.781 0
rclavicle 9.73606e-14 9.39223e-15 0
rhumerus 22.0452 3.51882 -72.0723
rradius 118.237 0 0
rwrist -59.0455 0 0
rhand -27.0541 -22.4502 0
rfingers 7.12502 0 0
rthumb -0.472371 -772.429 0
613
root 5.64276 16.687 -3.74157 7.14529 51.7554 -0.949906
lfemur -17.9574 25.1774 -22.0491
ltibia 40.2126 0 0
lfoot -32.5171 25.3613 0
ltoes 18.7279 0 0
rfemur -53.0246 -17.9677 28.3873
rtibia 61.9139 0 0
rfoot 7.93911 30.4547 0
rtoes -3.11085 0 0
lowerback 3.50088 -3.37501 -4.91182
upperback 0.00882817 -4.68115 1.07714
thorax -1.46345 -2.30148 4.06001
lowerneck -8.46745 -9.28341 -0.403084
upperneck 15.0934 -13.2664 4.51139
head 6.30776 -6.0873 0.414154
lclavicle 9.84323e-14 9.30318e-15 0
lhumerus -22.076 -42.5964 93.0651
lradius 56.7681 0 0
lwrist 20.4442 0 0
lhand -10.1694 0.402509 0
lfingers 7.12502 0 0
lthumb 15.8212 29.7881 0
rclavicle 9.84323e-14 9.30318e-15 0
rhumerus 22.1336 3.40763 -71.9884
rradius 118.163 0 0
rwrist -59.3487 0 0
rhand -27.0799 -22.4197 0
rfingers 7.12502 0 0
rthumb -0.497245 -772.398 0
614
root 5.65029 16.6948 -3.73169 8.44398 51.674 0.369862
lfemur -17.9627 25.3463 -22.0377
ltibia 40.1791 0 0
lfoot -32.4972 25.537 0
ltoes 18.886 0 0
rfemur -53.0131 -17.9438 28.4501
rtibia 61.9134 0 0
rfoot 7.9961 30.8128 0
rtoes -3.00395 0 0
lowerback 3.50451 -3.39227 -4.9044
upperback -0.00390154 -4.70506 1.07533
thorax -1.47616 -2.31298 4.05585
lowerneck -8.4907 -9.25608 -0.368374
upperneck 15.188 -13.2357 4.47744
head 6.33301 -6.06955 0.3972
lclavicle 9.98605e-14 9.38137e-15 0
lhumerus -21.9142 -42.6089 92.96
lradius 56.7281 0 0
lwrist 20.3814 0 0
lhand -10.1108 0.405397 0
lfingers 7.12502 0 0
lthumb 15.8779 29.7892 0
rclavicle 9.98605e-14 9.38137e-15 0
rhumerus 22.4317 3.34306 -71.9398
rradius 118.318 0 0
rwrist -59.7163 0 0
rhand -27.0844 -22.3116 0
rfingers 7.12502 0 0
rthumb -0.501587 -772.29 0
615
root 5.65783 16.7027 -3.72181 9.24735 51.8118 1.22709
lfemur -17.9778 25.4756 -22.0104
ltibia 40.1839 0 0
lfoot -32.4696 25.7174 0
ltoes 18.9653 0 0
rfemur -52.9902 -17.8909 28.4868
rtibia 61.8933 0 0
rfoot 8.08679 31.2102 0
rtoes -2.95186 0 0
lowerback 3.52885 -3.4016 -4.90086
upperback -0.00136292 -4.719 1.07591
thorax -1.48546 -2.3198 4.05677
lowerneck -8.49821 -9.24796 -0.348241
upperneck 15.2883 -13.2302 4.44911
head 6.35944 -6.06426 0.382519
lclavicle 1.01441e-13 9.56063e-15 0
lhumerus -21.7287 -42.4999 92.76
lradius 56.6238 0 0
lwrist 20.3258 0 0
lhand -10.0895 0.399715 0
lfingers 7.12502 0 0
lthumb 15.8985 29.784 0
rclavicle 1.01441e-13 9.56063e-15 0
rhumerus 22.873 3.32215 -71.9127
rradius 118.641 0 0
rwrist -60.1155 0 0
rhand -27.074 -22.1479 0
rfingers 7.12502 0 0
rthumb -0.491606 -772.126 0
616
root 5.66537 16.7105 -3.71193 9.62248 52.0989 1.67508
lfemur -17.9947 25.558 -21.9701
ltibia 40.2107 0 0
lfoot -32.4366 25.8814 0
ltoes 18.9878 0 0
rfemur -52.9502 -17.8151 28.4889
rtibia 61.858 0 0
rfoot 8.20088 31.5948 0
rtoes -2.94746 0 0
lowerback 3.56422 -3.40403 -4.89814
upperback 0.0107214 -4.72392 1.08012
thorax -1.49185 -2.32234 4.06194
lowerneck -8.49469 -9.25393 -0.339027
upperneck 15.3893 -13.2427 4.4247
head 6.3859 -6.06814 0.369566
lclavicle 1.02968e-13 9.77478e-15 0
lhumerus -21.5353 -42.3102 92.5026
lradius 56.4853 0 0
lwrist 20.2781 0 0
lhand -10.0993 0.385486 0
lfingers 7.12502 0 0
lthumb 15.8891 29.7719 0
rclavicle 1.02968e-13 9.77478e-15 0
rhumerus 23.3909 3.34198 -71.8935
rradius 119.068 0 0
rwrist -60.5139 0 0
rhand -27.0553 -21.9509 0
rfingers 7.12502 0 0
rthumb -0.473514 -771.93 0
617
root 5.67291 16.7183 -3.70205 9.63646 52.4651 1.76713
lfemur -18.0056 25.5862 -21.9192
ltibia 40.2432 0 0
lfoot -32.4007 26.0083 0
ltoes 18.9756 0 0
rfemur -52.8871 -17.7226 28.4482
rtibia 61.8123 0 0
rfoot 8.32807 31.9148 0
rtoes -2.98366 0 0
lowerback 3.60092 -3.40055 -4.89318
upperback 0.0266287 -4.72078 1.08914
thorax -1.49581 -2.32099 4.07052
lowerneck -8.48485 -9.26887 -0.337075
upperneck 15.4864 -13.2666 4.40253
head 6.41121 -6.0779 0.357792
lclavicle 1.04237e-13 9.95764e-15 0
lhumerus -21.3495 -42.0808 92.2255
lradius 56.3428 0 0
lwrist 20.2394 0 0
lhand -10.1341 0.362731 0
lfingers 7.12502 0 0
lthumb 15.8557 29.7527 0
rclavicle 1.04237e-13 9.95764e-15 0
rhumerus 23.9192 3.39959 -71.8683
rradius 119.536 0 0
rwrist -60.8789 0 0
rhand -27.0346 -21.7428 0
rfingers 7.12502 0 0
rthumb -0.453522 -771.722 0
